<?xml version="1.0" encoding="UTF-8" standalone="no"?>
<!-- Created with Inkscape (http://www.inkscape.org/) -->

<svg
   width="64pt"
   height="64pt"
   viewBox="0 0 22.577778 22.577778"
   version="1.1"
   id="svg831"
   inkscape:version="1.1.1 (3bf5ae0d25, 2021-09-20)"
   sodipodi:docname="Export - Unblash - 64px.svg"
   inkscape:export-filename="C:\Users\User\Desktop\CARLOS PROJECT\6. JUNI 2\DONE\FLAT\02 - Scooter.png"
   inkscape:export-xdpi="576"
   inkscape:export-ydpi="576"
   xmlns:inkscape="http://www.inkscape.org/namespaces/inkscape"
   xmlns:sodipodi="http://sodipodi.sourceforge.net/DTD/sodipodi-0.dtd"
   xmlns="http://www.w3.org/2000/svg"
   xmlns:svg="http://www.w3.org/2000/svg"
   xmlns:rdf="http://www.w3.org/1999/02/22-rdf-syntax-ns#"
   xmlns:cc="http://creativecommons.org/ns#"
   xmlns:dc="http://purl.org/dc/elements/1.1/">
  <defs
     id="defs825">
    <pattern
       id="EMFhbasepattern"
       patternUnits="userSpaceOnUse"
       width="6"
       height="6"
       x="0"
       y="0" />
    <pattern
       id="EMFhbasepattern-9"
       patternUnits="userSpaceOnUse"
       width="6"
       height="6"
       x="0"
       y="0" />
    <pattern
       id="EMFhbasepattern-0"
       patternUnits="userSpaceOnUse"
       width="6"
       height="6"
       x="0"
       y="0" />
    <pattern
       id="EMFhbasepattern-7"
       patternUnits="userSpaceOnUse"
       width="6"
       height="6"
       x="0"
       y="0" />
    <pattern
       id="EMFhbasepattern-2"
       patternUnits="userSpaceOnUse"
       width="6"
       height="6"
       x="0"
       y="0" />
    <pattern
       id="EMFhbasepattern-98"
       patternUnits="userSpaceOnUse"
       width="6"
       height="6"
       x="0"
       y="0" />
    <pattern
       id="EMFhbasepattern-6"
       patternUnits="userSpaceOnUse"
       width="6"
       height="6"
       x="0"
       y="0" />
    <pattern
       id="EMFhbasepattern-01"
       patternUnits="userSpaceOnUse"
       width="6"
       height="6"
       x="0"
       y="0" />
    <pattern
       id="EMFhbasepattern-07"
       patternUnits="userSpaceOnUse"
       width="6"
       height="6"
       x="0"
       y="0" />
    <pattern
       id="EMFhbasepattern-8"
       patternUnits="userSpaceOnUse"
       width="6"
       height="6"
       x="0"
       y="0" />
    <pattern
       id="EMFhbasepattern-4"
       patternUnits="userSpaceOnUse"
       width="6"
       height="6"
       x="0"
       y="0" />
    <pattern
       id="EMFhbasepattern-40"
       patternUnits="userSpaceOnUse"
       width="6"
       height="6"
       x="0"
       y="0" />
    <pattern
       id="EMFhbasepattern-08"
       patternUnits="userSpaceOnUse"
       width="6"
       height="6"
       x="0"
       y="0" />
    <pattern
       id="EMFhbasepattern-04"
       patternUnits="userSpaceOnUse"
       width="6"
       height="6"
       x="0"
       y="0" />
    <pattern
       id="EMFhbasepattern-014"
       patternUnits="userSpaceOnUse"
       width="6"
       height="6"
       x="0"
       y="0" />
    <pattern
       id="EMFhbasepattern-27"
       patternUnits="userSpaceOnUse"
       width="6"
       height="6"
       x="0"
       y="0" />
    <pattern
       id="EMFhbasepattern-09"
       patternUnits="userSpaceOnUse"
       width="6"
       height="6"
       x="0"
       y="0" />
    <pattern
       id="EMFhbasepattern-5"
       patternUnits="userSpaceOnUse"
       width="6"
       height="6"
       x="0"
       y="0" />
    <pattern
       id="EMFhbasepattern-018"
       patternUnits="userSpaceOnUse"
       width="6"
       height="6"
       x="0"
       y="0" />
  </defs>
  <sodipodi:namedview
     id="base"
     pagecolor="#ffffff"
     bordercolor="#666666"
     borderopacity="1.0"
     inkscape:pageopacity="0.0"
     inkscape:pageshadow="2"
     inkscape:zoom="9.1757813"
     inkscape:cx="37.925926"
     inkscape:cy="42.666667"
     inkscape:document-units="pt"
     inkscape:current-layer="layer1"
     showgrid="false"
     units="pt"
     inkscape:window-width="1920"
     inkscape:window-height="1001"
     inkscape:window-x="-9"
     inkscape:window-y="-9"
     inkscape:window-maximized="1"
     inkscape:pagecheckerboard="true"
     inkscape:showpageshadow="false"
     inkscape:object-paths="true"
     inkscape:snap-intersection-paths="true"
     inkscape:snap-smooth-nodes="true"
     inkscape:snap-midpoints="true"
     showguides="true"
     inkscape:snap-bbox="true"
     inkscape:bbox-nodes="true"
     inkscape:snap-nodes="false"
     inkscape:snap-global="true"
     inkscape:snap-others="false">
    <inkscape:grid
       type="xygrid"
       id="grid1378" />
    <sodipodi:guide
       position="0.97013831,21.607643"
       orientation="78.000048,0"
       id="guide1380"
       inkscape:locked="false" />
    <sodipodi:guide
       position="0.97013831,0.97013129"
       orientation="0,78.000005"
       id="guide1382"
       inkscape:locked="false" />
    <sodipodi:guide
       position="21.607639,0.97013129"
       orientation="-78.000048,0"
       id="guide1384"
       inkscape:locked="false" />
    <sodipodi:guide
       position="21.607639,21.607643"
       orientation="0,-78.000005"
       id="guide1386"
       inkscape:locked="false" />
  </sodipodi:namedview>
  <metadata
     id="metadata828">
    <rdf:RDF>
      <cc:Work
         rdf:about="">
        <dc:format>image/svg+xml</dc:format>
        <dc:type
           rdf:resource="http://purl.org/dc/dcmitype/StillImage" />
      </cc:Work>
    </rdf:RDF>
  </metadata>
  <g
     inkscape:label="Icon"
     inkscape:groupmode="layer"
     id="layer1"
     transform="translate(0,-274.42223)">
    <g
       id="g3520"
       style="display:inline;stroke-width:0.79495"
       transform="matrix(1.2579414,0,0,1.2579414,0.63860832,-38.147222)">
      <path
         style="color:#000000;fill:#ececec;fill-opacity:1;stroke-width:0.79495;stroke-linecap:round;stroke-linejoin:round;-inkscape-stroke:none"
         d="m 1.3066362,262.20899 11.9179688,0.16407 c 0.0451,10e-5 0.08947,-0.0113 0.128907,-0.0332 l 0.724609,-0.39062 h 1.794922 c 0.435233,0 0.794922,-0.35969 0.794922,-0.79492 v -1.58594 c 0,-0.73697 -0.545845,-1.36646 -1.275391,-1.4707 l -1.582031,-0.22657 c -0.256422,-0.0367 -0.472835,-0.20421 -0.572266,-0.44336 l -0.74414,-1.78711 c -0.409762,-0.98551 -1.374097,-1.6289 -2.441407,-1.6289 l -4.4003863,-2e-5 c -0.959109,0 -1.8077351,0.62629 -2.0898437,1.54297 l -0.5644531,1.83593 c -0.051686,0.23447 -0.1505759,0.42165 -0.3613325,0.37699 l -1.3222657,0.13281 c -0.59396503,0.0593 -1.05078123,0.56323 -1.05078122,1.16016 v 2.35937 z"
         id="path507722"
         sodipodi:nodetypes="ccccsssccccccccccscc" />
      <path
         id="path286764"
         style="fill:#cccccc;fill-opacity:1;stroke-width:3.00454;stroke-linecap:round;stroke-linejoin:round"
         d="m 57.779297,-68.474609 c -0.257524,-3.779241 -3.443186,-6.806641 -7.283203,-6.806641 -4.006058,0 -7.3008,3.294709 -7.300782,7.300781 z"
         transform="matrix(0.26458334,0,0,0.26458334,0,280.06666)"
         sodipodi:nodetypes="cscc" />
      <path
         id="path278612"
         style="fill:#cccccc;fill-opacity:1;stroke-width:3.00454;stroke-linecap:round;stroke-linejoin:round"
         d="m 19.296875,-67.980469 c 1.8e-5,-4.006072 -3.294722,-7.300781 -7.300781,-7.300781 -4.0060587,0 -7.3008,3.294709 -7.3007815,7.300781 z"
         transform="matrix(0.26458334,0,0,0.26458334,0,280.06666)"
         sodipodi:nodetypes="cscc" />
      <path
         id="path247070"
         style="color:#000000;fill:#cccccc;fill-opacity:1;stroke-width:3.00454;stroke-linecap:round;stroke-linejoin:round;-inkscape-stroke:none"
         d="m 21.363281,-98.474609 c -3.624979,0 -6.8322,2.36546 -7.898437,5.830078 l -2.132813,6.939453 c -0.195348,0.886444 -0.70223,1.359391 -1.3671882,1.425781 L 4.96875,-83.777344 c -2.2449072,0.224126 -3.97265629,2.128653 -3.97265625,4.384766 v 2 c -4e-8,-2.256113 1.72774905,-4.16064 3.97265625,-4.384766 l 4.9960938,-0.501953 c 0.6638152,-0.09054 1.1746762,-0.852024 1.3671882,-1.425781 l 2.132813,-6.939453 c 1.066237,-3.464618 4.273458,-5.830078 7.898437,-5.830078 h 16.63086 c 4.033927,0 7.679808,2.431487 9.228515,6.15625 l 2.8125,6.753906 c 0.375802,0.903874 1.192956,1.537072 2.16211,1.675781 l 5.978515,0.855469 c 2.051454,0.245335 2.801605,1.766516 2.820313,3.558594 v 5.99414 c 0,1.644964 -1.358931,3.00586 -3.003906,3.00586 h 2 c 1.644975,0 3.003906,-1.360896 3.003906,-3.00586 -0.03127,-2.148112 0.04491,-4.395834 -0.02344,-6.511719 0,-2.448276 -2.267984,-4.7087 -4.796875,-5.041015 l -5.978515,-0.855469 c -0.969154,-0.138709 -1.786308,-0.771907 -2.16211,-1.675781 l -2.8125,-6.753906 c -1.548707,-3.724763 -5.194588,-6.15625 -9.228515,-6.15625 z"
         transform="matrix(0.26458334,0,0,0.26458334,0,280.06666)"
         sodipodi:nodetypes="sccccscccccsscccccscsccccccss" />
      <path
         style="color:#000000;fill:#3a4d5b;fill-opacity:1;stroke-width:0.79495;stroke-linecap:round;stroke-linejoin:round;-inkscape-stroke:none"
         d="m 12.762563,261.15435 h -1.914907 c -0.0704,5e-5 -0.137878,0.0282 -0.1875,0.0781 l -0.1875,0.1875 H 5.6640625 l -0.1855469,-0.1875 c -0.049622,-0.0499 -0.1170991,-0.078 -0.1875,-0.0781 H 4.1640625 l -0.022796,1.85351 h 8.3184095 z"
         id="path271382" />
      <path
         id="path280784"
         style="fill:#143441;fill-opacity:1;stroke-width:3.00454;stroke-linecap:round;stroke-linejoin:round"
         d="m 15.738281,-71.480469 -0.08594,7.00586 h 2.738281 c 0.576472,-1.043545 0.906244,-2.239582 0.90625,-3.50586 6e-6,-1.264605 -0.328943,-2.458443 -0.904297,-3.5 z"
         transform="matrix(0.26458334,0,0,0.26458334,0,280.06666)" />
      <path
         style="color:#000000;fill:#3a4d5b;fill-opacity:1;stroke-width:0.79495;stroke-linecap:round;stroke-linejoin:round;-inkscape-stroke:none"
         d="m 14.349609,263.00786 h 1.523438 c 0.217616,0 0.403876,-0.0863 0.541015,-0.19726 0.13714,-0.11099 0.253907,-0.23513 0.253907,-0.45118 0,-0.40169 2e-6,-0.80338 -4e-6,-1.20507 h -2.768236 z"
         id="path271380" />
      <path
         id="path290148"
         style="color:#000000;fill:#143441;fill-opacity:1;stroke-width:3.00454;stroke-linecap:round;stroke-linejoin:round;-inkscape-stroke:none"
         d="m 52.535156,-71.480469 0.484375,2 h 9.976563 c -2e-6,-0.666653 1e-5,-1.333347 0,-2 z"
         transform="matrix(0.26458334,0,0,0.26458334,0,280.06666)" />
      <path
         style="color:#000000;fill:#3a4d5b;fill-opacity:1;stroke-width:0.79495;stroke-linecap:round;stroke-linejoin:round;-inkscape-stroke:none"
         d="m 2.1835938,261.15435 -1.91992632,-5e-5 4.4e-6,0.26562 c -1e-8,0.72748 0.59478489,1.32227 1.32226562,1.32227 h 0.4492188 z"
         id="path508981" />
      <path
         id="path279802"
         style="fill:#143441;fill-opacity:1;stroke-width:3.00454;stroke-linecap:round;stroke-linejoin:round"
         d="m 5.5996094,-71.480469 c -0.5753538,1.041557 -0.9043027,2.235395 -0.9042969,3.5 3.9e-6,0.847948 0.1474244,1.663603 0.4179687,2.423828 0.2858575,0.05128 0.5807845,0.07813 0.8808594,0.07813 h 1.6972656 l 0.5625,-6.001953 z"
         transform="matrix(0.26458334,0,0,0.26458334,0,280.06666)" />
      <path
         id="path271402"
         style="color:#000000;fill:#143441;fill-opacity:1;stroke-width:3.00454;stroke-linecap:round;stroke-linejoin:round;-inkscape-stroke:none"
         d="m 0.99609375,-71.480469 v 1.003907 c 0,0.34089 0.033828,0.673949 0.0996093,0.996093 h 6.9707031 l 0.1875,-2 z"
         transform="matrix(0.26458334,0,0,0.26458334,0,280.06666)" />
      <path
         id="path275032"
         style="color:#000000;fill:#143441;fill-opacity:1;stroke-width:3.00454;stroke-linecap:round;stroke-linejoin:round;-inkscape-stroke:none"
         d="m 15.738281,-69.480469 h 4.259766 c 0.266082,3.78e-4 0.521437,0.108277 0.708984,0.296875 l 0.701172,0.707032 h 18.173828 l 0.708985,-0.707032 c 0.187547,-0.188598 0.440952,-0.296686 0.707031,-0.296875 h 6.912109 l 0.326172,-2 h -7.238281 c -0.266079,1.89e-4 -0.519484,0.108277 -0.707031,0.296875 l -0.708985,0.707032 H 21.408203 l -0.701172,-0.707032 c -0.187547,-0.188598 -0.442902,-0.296497 -0.708984,-0.296875 h -4.259766 z"
         transform="matrix(0.26458334,0,0,0.26458334,0,280.06666)"
         sodipodi:nodetypes="ccccccccccccccccc" />
      <path
         id="path278491"
         style="fill:#143441;fill-opacity:1;stroke-width:3.00454;stroke-linecap:round;stroke-linejoin:round"
         d="m 52.535156,-71.480469 1.699219,7.00586 h 2.65625 c 0.576472,-1.043545 0.906244,-2.239582 0.90625,-3.50586 6e-6,-1.264605 -0.328943,-2.458443 -0.904297,-3.5 z"
         transform="matrix(0.26458334,0,0,0.26458334,0,280.06666)" />
      <path
         style="color:#000000;fill:#3a4d5b;stroke-width:0.79495;stroke-linecap:round;stroke-linejoin:round;-inkscape-stroke:none"
         d="m 3.1738281,260.625 c -0.800556,0 -1.4550818,0.65452 -1.4550781,1.45508 3.7e-6,0.80055 0.6545252,1.45703 1.4550781,1.45703 0.8005529,0 1.4550745,-0.65648 1.4550781,-1.45703 3.7e-6,-0.80056 -0.654522,-1.45508 -1.4550781,-1.45508 z"
         id="path509173" />
      <path
         id="path282570"
         style="color:#000000;fill:#143441;fill-opacity:1;stroke-width:3.00454;stroke-linecap:round;stroke-linejoin:round;-inkscape-stroke:none"
         d="m 44.099609,-71.480469 c -0.575353,1.041557 -0.904302,2.235395 -0.904297,3.5 6e-6,1.266197 0.327894,2.462362 0.904297,3.50586 h 2.992188 l 1.144531,-7.00586 z"
         transform="matrix(0.26458334,0,0,0.26458334,0,280.06666)" />
      <path
         style="color:#000000;fill:#3a4d5b;stroke-width:0.79495;stroke-linecap:round;stroke-linejoin:round;-inkscape-stroke:none"
         d="m 13.361328,260.625 c -0.800556,0 -1.457035,0.65452 -1.457031,1.45508 4e-6,0.80055 0.656478,1.45703 1.457031,1.45703 0.800553,0 1.455075,-0.65648 1.455078,-1.45703 4e-6,-0.80056 -0.654522,-1.45508 -1.455078,-1.45508 z"
         id="path509179" />
      <path
         style="color:#000000;display:inline;fill:#aabfd0;fill-opacity:1;stroke-width:0.420661;stroke-linecap:round;stroke-linejoin:round;stroke-miterlimit:4;stroke-dasharray:none"
         d="m 3.173977,261.68404 c 0.216793,0 0.396891,0.1801 0.396894,0.39689 6e-6,0.21681 -0.180096,0.3969 -0.396894,0.3969 -0.216798,0 -0.3969,-0.18009 -0.396894,-0.3969 3e-6,-0.21679 0.180101,-0.39689 0.396894,-0.39689 z"
         id="path11517-1" />
      <path
         style="color:#000000;display:inline;fill:#aabfd0;fill-opacity:1;stroke-width:0.420661;stroke-linecap:round;stroke-linejoin:round;stroke-miterlimit:4;stroke-dasharray:none"
         d="m 13.360435,261.68404 c 0.216793,0 0.396891,0.1801 0.396894,0.39689 6e-6,0.21681 -0.180096,0.3969 -0.396894,0.3969 -0.216798,0 -0.3969,-0.18009 -0.396894,-0.3969 3e-6,-0.21679 0.180101,-0.39689 0.396894,-0.39689 z"
         id="path23074" />
      <path
         style="color:#000000;fill:#dc1c4b;stroke-width:0.79495;stroke-linecap:round;stroke-linejoin:round;-inkscape-stroke:none"
         d="m 7.4433594,251.36523 c -0.5813669,0 -1.0585938,0.47723 -1.0585938,1.0586 v 0.52929 c 3.7e-6,0.28912 0.2401831,0.5293 0.5292969,0.5293 h 2.1152344 c 0.289114,0 0.5292932,-0.24018 0.5292969,-0.5293 v -0.52929 c -1e-7,-0.58137 -0.4752737,-1.0586 -1.0566407,-1.0586 z"
         id="path507506" />
      <path
         style="color:#000000;fill:#4377d1;fill-opacity:1;stroke-width:0.420661;stroke-linecap:round;stroke-linejoin:round;-inkscape-stroke:none"
         d="M 7.3759758,257.97993 H 4.730142 c -0.273755,0 -0.479075,-0.25045 -0.425387,-0.51889 l 0.211686,-1.05843 c 0.124257,-0.62129 0.669773,-1.06851 1.303369,-1.06851 h 1.2915857 c 0.1461235,0 0.2645801,0.11846 0.2645801,0.26458 0,0.79375 0,1.5875 0,2.38125 z"
         id="path509929" />
      <path
         style="color:#000000;fill:#4377d1;fill-opacity:1;stroke-width:0.420661;stroke-linecap:round;stroke-linejoin:round;-inkscape-stroke:none"
         d="m 8.4969792,257.97993 h 2.6458328 c 0.273755,0 0.479075,-0.25045 0.425387,-0.51889 l -0.211686,-1.05843 C 11.232256,255.78132 10.68674,255.3341 10.053145,255.3341 H 8.7615592 c -0.1461235,0 -0.26458,0.11846 -0.26458,0.26458 0,0.79375 0,1.5875 0,2.38125 z"
         id="path509935" />
      <path
         style="color:#000000;fill:#7d8e9e;stroke-width:0.79495;stroke-linecap:round;stroke-linejoin:round;-inkscape-stroke:none"
         d="m 13.228516,258.77344 a 0.2645835,0.2645835 0 0 0 -0.265625,0.26562 v 1.05664 a 0.2645835,0.2645835 0 0 0 0.265625,0.26563 0.2645835,0.2645835 0 0 0 0.263672,-0.26563 v -1.05664 a 0.2645835,0.2645835 0 0 0 -0.263672,-0.26562 z"
         id="path29186" />
      <path
         id="path509545"
         style="color:#000000;fill:#fca311;stroke-width:1.5899;stroke-linecap:round;stroke-linejoin:round;-inkscape-stroke:none"
         d="m 58.945312,-77.476562 c -0.528365,0.02678 -0.949211,0.464993 -0.949218,1 v 2 c 7e-6,0.587716 0.400546,1.099699 0.970703,1.242187 1.337418,0.353214 2.681636,0.672824 4.029297,0.982422 v -5.222656 c 0,-6.55e-4 0,-0.0013 0,-0.002 h -4 c -0.01726,0 -0.03374,-8.64e-4 -0.05078,0 z"
         transform="matrix(0.26458334,0,0,0.26458334,0,280.06666)" />
      <path
         style="color:#000000;fill:#fca311;stroke-width:0.79495;stroke-linecap:round;stroke-linejoin:round;-inkscape-stroke:none"
         d="m 7.9355469,257.75391 a 0.26460996,0.26460996 0 0 0 -0.2363282,0.14843 l -0.4042968,0.82032 -0.90625,0.13086 a 0.26460996,0.26460996 0 0 0 -0.1464844,0.45117 l 0.6542969,0.63867 -0.1542969,0.90234 a 0.26460996,0.26460996 0 0 0 0.3847656,0.2793 l 0.8085938,-0.42578 0.8105469,0.42578 a 0.26460996,0.26460996 0 0 0 0.3847656,-0.2793 l -0.1542969,-0.90234 0.6542969,-0.63867 A 0.26460996,0.26460996 0 0 0 9.484375,258.85352 l -0.90625,-0.13086 -0.4042969,-0.82032 a 0.26460996,0.26460996 0 0 0 -0.2382812,-0.14843 z"
         id="path509739" />
      <path
         style="color:#000000;fill:#4377d1;stroke-width:0.79495;stroke-linecap:round;stroke-linejoin:round;-inkscape-stroke:none"
         d="m 3.703125,258.77344 a 0.2645835,0.2645835 0 0 0 -0.2636719,0.26562 0.2645835,0.2645835 0 0 0 0.2636719,0.26367 h 1.8515625 a 0.2645835,0.2645835 0 0 0 0.265625,-0.26367 0.2645835,0.2645835 0 0 0 -0.265625,-0.26562 z"
         id="path33678" />
      <path
         style="color:#000000;fill:#4377d1;fill-opacity:1;stroke-width:0.79495;stroke-linecap:round;stroke-linejoin:round;-inkscape-stroke:none"
         d="m 4.2324219,259.83203 a 0.2645835,0.2645835 0 0 0 -0.265625,0.26367 0.2645835,0.2645835 0 0 0 0.265625,0.26563 h 1.8515625 a 0.2645835,0.2645835 0 0 0 0.265625,-0.26563 0.2645835,0.2645835 0 0 0 -0.265625,-0.26367 z"
         id="path33855" />
      <path
         style="color:#000000;fill:#4377d1;stroke-width:0.79495;stroke-linecap:round;stroke-linejoin:round;-inkscape-stroke:none"
         d="m 10.318359,258.77344 a 0.2645835,0.2645835 0 0 0 -0.265625,0.26562 0.2645835,0.2645835 0 0 0 0.265625,0.26367 h 1.851563 a 0.2645835,0.2645835 0 0 0 0.263672,-0.26367 0.2645835,0.2645835 0 0 0 -0.263672,-0.26562 z"
         id="path33941" />
      <path
         style="color:#000000;fill:#4377d1;fill-opacity:1;stroke-width:0.79495;stroke-linecap:round;stroke-linejoin:round;-inkscape-stroke:none"
         d="m 9.7890625,259.83203 a 0.2645835,0.2645835 0 0 0 -0.265625,0.26367 0.2645835,0.2645835 0 0 0 0.265625,0.26563 h 1.8515625 a 0.2645835,0.2645835 0 0 0 0.263672,-0.26563 0.2645835,0.2645835 0 0 0 -0.263672,-0.26367 z"
         id="path33943" />
      <path
         style="color:#000000;fill:#3a4d5b;fill-opacity:1;stroke-width:0.79495;stroke-linecap:round;stroke-linejoin:round;-inkscape-stroke:none"
         d="m 10.650391,251.375 a 0.2645835,0.2645835 0 0 0 -0.201172,0.0254 l -0.4570315,0.26563 a 0.2645835,0.2645835 0 0 0 -0.097656,0.36132 0.2645835,0.2645835 0 0 0 0.3613275,0.0957 l 0.458985,-0.26368 a 0.2645835,0.2645835 0 0 0 0.0957,-0.36132 0.2645835,0.2645835 0 0 0 -0.160156,-0.12305 z"
         id="path43501" />
      <path
         style="color:#000000;fill:#3a4d5b;fill-opacity:1;stroke-width:0.79495;stroke-linecap:round;stroke-linejoin:round;-inkscape-stroke:none"
         d="m 10.054688,252.69727 a 0.2645835,0.2645835 0 0 0 -0.1601567,0.12304 0.2645835,0.2645835 0 0 0 0.097656,0.36133 l 0.4570317,0.26563 a 0.2645835,0.2645835 0 0 0 0.361328,-0.0977 0.2645835,0.2645835 0 0 0 -0.0957,-0.36133 l -0.458985,-0.26367 a 0.2645835,0.2645835 0 0 0 -0.201171,-0.0273 z"
         id="path43503" />
      <path
         style="color:#000000;fill:#3a4d5b;fill-opacity:1;stroke-width:0.79495;stroke-linecap:round;stroke-linejoin:round;-inkscape-stroke:none"
         d="m 5.2929687,251.375 a 0.2645835,0.2645835 0 0 0 -0.1601562,0.12305 0.2645835,0.2645835 0 0 0 0.095703,0.36132 L 5.6875,252.12305 a 0.2645835,0.2645835 0 0 0 0.3613281,-0.0957 0.2645835,0.2645835 0 0 0 -0.097656,-0.36132 L 5.4941406,251.40039 A 0.2645835,0.2645835 0 0 0 5.2929687,251.375 Z"
         id="path43563" />
      <path
         style="color:#000000;fill:#3a4d5b;fill-opacity:1;stroke-width:0.79495;stroke-linecap:round;stroke-linejoin:round;-inkscape-stroke:none"
         d="M 5.8886719,252.69727 A 0.2645835,0.2645835 0 0 0 5.6875,252.72461 l -0.4589844,0.26367 a 0.2645835,0.2645835 0 0 0 -0.095703,0.36133 0.2645835,0.2645835 0 0 0 0.3613281,0.0977 l 0.4570313,-0.26563 a 0.2645835,0.2645835 0 0 0 0.097656,-0.36133 0.2645835,0.2645835 0 0 0 -0.1601562,-0.12304 z"
         id="path43565" />
      <path
         id="path507915"
         style="color:#000000;fill:#dc1c4b;fill-opacity:1;stroke-width:1.5899;stroke-linecap:round;stroke-linejoin:round;-inkscape-stroke:none"
         d="m 0.99609375,-79.384766 v 5.271485 c 1.34168125,-0.366081 2.69390375,-0.691814 4.04296875,-1.029297 0.5701523,-0.142526 0.9706952,-0.654471 0.9707031,-1.242188 v -2 c -7.2e-6,-0.552264 -0.4477207,-1 -1,-1 z"
         transform="matrix(0.26458334,0,0,0.26458334,0,280.06666)"
         sodipodi:nodetypes="cccccsc" />
      <path
         id="path604660"
         style="color:#000000;fill:#b01d47;fill-opacity:1;stroke-width:0.79495;stroke-linecap:round;stroke-linejoin:round;-inkscape-stroke:none"
         d="m 7.4434734,251.36505 c -0.4262893,0 -0.7965465,0.25713 -0.9637655,0.62322 0.1327378,-0.0603 0.2801733,-0.0941 0.4345988,-0.0941 H 7.97264 c 0.5813671,0 1.0567831,0.47748 1.0567831,1.05885 v 0.52917 c 0.2891139,0 0.529163,-0.24005 0.5291667,-0.52917 v -0.52917 c 0,-0.58137 -0.475416,-1.05885 -1.0567832,-1.05885 z" />
      <path
         id="path243438"
         style="color:#000000;fill:#b01d47;fill-opacity:1;stroke-width:1.5899;stroke-linecap:round;stroke-linejoin:round;-inkscape-stroke:none"
         d="m 0.99609375,-79.384766 v 2 H 3.0097656 c 0.5522793,0 0.9999928,0.447736 1,1 v 1.5 l 1.0292969,-0.257812 c 0.5701523,-0.142526 0.9706952,-0.654471 0.9707031,-1.242188 v -2 c -7.2e-6,-0.552264 -0.4477207,-1 -1,-1 z"
         transform="matrix(0.26458334,0,0,0.26458334,0,280.06666)" />
      <path
         id="path248761"
         style="color:#000000;fill:#2c5eb5;fill-opacity:1;stroke-width:1.5899;stroke-linecap:round;stroke-linejoin:round;-inkscape-stroke:none"
         d="m 33.0625,-93.476562 c -0.528363,0.02678 -0.947266,0.464993 -0.947266,1 v 1 h 3.88086 c 2.394688,0 4.456148,1.688926 4.925781,4.037109 l 0.792969,3.962891 h 0.40039 c 1.034665,0 1.810338,-0.948315 1.607422,-1.962891 l -0.800781,-4 c -0.469633,-2.348183 -2.531092,-4.037109 -4.925781,-4.037109 z"
         transform="matrix(0.26458334,0,0,0.26458334,0,280.06666)"
         sodipodi:nodetypes="cscsccscccc" />
      <path
         id="path250484"
         style="color:#000000;fill:#2c5eb5;fill-opacity:1;stroke-width:1.5899;stroke-linecap:round;stroke-linejoin:round;-inkscape-stroke:none"
         d="m 21.884766,-93.476562 c -1.575596,0.03474 -2.99829,0.800749 -3.902344,2 h 6.894531 c 0.552278,0 1,0.447735 1,1 v 7 h 2 v -9 c 0,-0.552265 -0.447722,-1 -1,-1 z"
         transform="matrix(0.26458334,0,0,0.26458334,0,280.06666)"
         sodipodi:nodetypes="ccssccscc" />
      <path
         id="path270038"
         style="fill:#ec7523;fill-opacity:1;stroke:none;stroke-width:1.5899;stroke-linecap:round;stroke-linejoin:round;stroke-opacity:1;stop-color:#000000"
         d="m 29.992188,-84.332031 v 11.132812 l 3.064453,1.609375 a 1.0001006,1.0001006 0 0 0 1.453125,-1.05664 l -0.582032,-3.410157 2.472657,-2.414062 a 1.0001006,1.0001006 0 0 0 -0.554688,-1.705078 l -3.423828,-0.494141 -1.529297,-3.101562 a 1.0001006,1.0001006 0 0 0 -0.90039,-0.560547 z"
         transform="matrix(0.26458334,0,0,0.26458334,0,280.06666)" />
      <path
         id="path291052"
         style="color:#000000;fill:#ec7523;fill-opacity:1;stroke-width:1.5899;stroke-linecap:round;stroke-linejoin:round;-inkscape-stroke:none"
         d="m 58.945314,-77.476609 c -0.528365,0.02678 -0.949211,0.464992 -0.949218,1 v 1 l 1.721272,5.61e-4 c 0.706289,2.3e-4 1.278727,0.572855 1.278727,1.279144 l -10e-7,1.474248 c 0.665875,0.161246 1.332024,0.317249 2,0.470703 v -5.222656 z"
         transform="matrix(0.26458334,0,0,0.26458334,0,280.06666)"
         sodipodi:nodetypes="csccccccc" />
    </g>
  </g>
</svg>
