<?xml version="1.0" ?><svg xmlns="http://www.w3.org/2000/svg" viewBox="0 0 32 32"><g id="_83_home-05" data-name="83 home-05"><path d="M25.17,29H20a1,1,0,0,1-1-1V19a1,1,0,0,0-1-1H14a1,1,0,0,0-1,1v9a1,1,0,0,1-1,1H6.83A2.93,2.93,0,0,1,4,26V12.1A3,3,0,0,1,5.39,9.57L14.93,3.5a2,2,0,0,1,2.14,0l9.54,6.07A3,3,0,0,1,28,12.1V26A2.93,2.93,0,0,1,25.17,29ZM21,27h4.17A.94.94,0,0,0,26,26V12.1a1,1,0,0,0-.46-.85h0L16,5.19,6.46,11.25A1,1,0,0,0,6,12.1V26a.94.94,0,0,0,.83,1H11V19a3,3,0,0,1,3-3h4a3,3,0,0,1,3,3Z"/></g></svg>