<svg width="38" height="36" viewBox="0 0 38 36" fill="none" xmlns="http://www.w3.org/2000/svg">
<path fill-rule="evenodd" clip-rule="evenodd" d="M5 14V14.026C2.267 14.306 0.098999 16.862 0.098999 20C0.098999 23.138 2.267 25.694 5 25.974V26C5 26.828 5.672 27.5 6.5 27.5H6.528C6.684 28.86 7.473 30.142 8.764 31.235C10.808 32.965 14.135 34.234 18.02 34.591C18.038 34.593 18.056 34.594 18.074 34.593C18.533 35.147 19.226 35.5 20 35.5C21.38 35.5 22.5 34.38 22.5 33C22.5 31.62 21.38 30.5 20 30.5C19.251 30.5 18.579 30.83 18.12 31.352C15.317 31.057 12.932 30.269 11.455 29.2C10.556 28.549 10 27.809 10 27V15C10 14.347 9.583 13.792 9.002 13.586C9.096 8.536 13.546 4.208 19 4.208C24.454 4.208 28.904 8.536 28.998 13.586C28.417 13.792 28 14.347 28 15V26C28 26.828 28.672 27.5 29.5 27.5H31.5C32.328 27.5 33 26.828 33 26V25.974C35.721 25.693 37.879 23.137 37.879 20C37.879 16.863 35.721 14.307 33 14.026V14C33 6.554 26.795 0.5 19.063 0.5C11.332 0.5 5 6.555 5 14ZM20 31.5C20.828 31.5 21.5 32.172 21.5 33C21.5 33.828 20.828 34.5 20 34.5C19.172 34.5 18.5 33.828 18.5 33C18.5 32.172 19.172 31.5 20 31.5ZM7.537 27.5C7.697 28.585 8.373 29.593 9.41 30.471C11.232 32.014 14.148 33.14 17.558 33.538C17.52 33.365 17.5 33.185 17.5 33C17.5 32.757 17.535 32.522 17.6 32.299C14.772 31.947 12.38 31.104 10.869 30.01C9.848 29.271 9.217 28.406 9.047 27.5H7.537ZM6 26V14.5H8.5C8.776 14.5 9 14.724 9 15V26.5H6.5C6.224 26.5 6 26.276 6 26ZM32 14.5V26C32 26.276 31.776 26.5 31.5 26.5H29.5C29.224 26.5 29 26.276 29 26V15C29 14.724 29.224 14.5 29.5 14.5H32ZM5 15.032C2.793 15.314 1.099 17.445 1.099 20C1.099 22.555 2.793 24.686 5 24.968V15.032ZM33 15.032V24.968C35.195 24.684 36.879 22.553 36.879 20C36.879 17.447 35.195 15.316 33 15.032ZM31.99 13.5C31.719 6.828 26.058 1.5 19.063 1.5C12.067 1.5 6.287 6.826 6.01 13.5H8.003C8.146 7.962 13.013 3.208 19 3.208C24.987 3.208 29.854 7.962 29.997 13.5H31.99Z" fill="black"/>
</svg>
